<svg xmlns="http://www.w3.org/2000/svg" version="1.1" xmlns:xlink="http://www.w3.org/1999/xlink" xmlns:svgjs="http://svgjs.dev/svgjs" width="800" height="801"><svg width="800" height="801" viewBox="0 0 800 801" fill="none" xmlns="http://www.w3.org/2000/svg">
<g clip-path="url(#clip0_198_511)">
<circle cx="400" cy="400.889" r="400" fill="#E01616"></circle>
<path d="M381.736 619.234C345.949 619.234 315.467 612.128 290.25 597.896C265.448 583.664 246.545 564.761 233.521 541.167C220.912 517.573 214.42 491.96 214.004 464.308H308.539C309.766 486.259 317.486 503.955 331.717 517.375C346.365 530.38 364.852 536.892 387.219 536.892C405.924 536.892 420.968 533.032 432.349 525.292C443.73 517.573 449.431 506.191 449.431 491.128C449.431 478.935 444.76 469.375 435.397 462.467C426.055 455.143 414.06 449.047 399.412 444.178C384.765 438.893 369.128 433.41 352.442 427.709C336.171 422.009 320.732 414.903 306.085 406.372C291.437 397.425 279.442 385.845 270.099 371.614C260.757 357.382 256.066 339.092 256.066 316.725C256.066 289.489 263.191 265.895 277.403 245.983C291.635 225.654 310.954 209.997 335.34 199.012C359.745 188.026 387.378 182.544 418.295 182.544C451.648 182.544 479.082 188.442 500.638 200.239C522.589 212.036 539.057 228.089 550.043 248.417C561.424 268.35 567.936 291.112 569.559 316.725H475.638C472.788 300.455 465.464 287.846 453.687 278.919C442.305 269.577 427.658 264.886 409.764 264.886C393.91 264.886 380.489 268.35 369.504 275.258C358.518 282.166 353.035 291.726 353.035 303.919C353.035 314.489 357.707 323.02 367.069 329.532C376.412 335.629 388.407 340.914 403.054 345.387C418.098 349.86 433.754 354.947 450.025 360.628C466.691 365.913 482.348 373.039 496.995 381.966C512.039 390.913 524.232 402.908 533.594 417.951C542.937 432.994 547.628 452.313 547.628 475.887C547.628 504.351 540.72 529.35 526.884 550.906C513.068 572.461 493.749 589.325 468.948 601.538C444.146 613.335 415.069 619.234 381.736 619.234Z" fill="#FEFBF6"></path>
</g>
<defs>
<clipPath id="SvgjsClipPath1002">
<rect width="800" height="800" fill="white" transform="translate(0 0.888672)"></rect>
</clipPath>
</defs>
</svg><style>@media (prefers-color-scheme: light) { :root { filter: none; } }
@media (prefers-color-scheme: dark) { :root { filter: none; } }
</style></svg>