<svg width="956" height="218" viewBox="0 0 956 218" fill="none" xmlns="http://www.w3.org/2000/svg">
<path d="M111.998 31.0399L114.686 24.7359L107.742 7.48792H113.086L117.278 18.4319L121.406 7.48792H126.622L117.182 31.0399H111.998Z" fill="#2B2B2B"/>
<path d="M105.32 25.472C101.736 25.472 99.0163 23.296 99.0163 19.392V11.488H96.5203V7.48798H99.0163V3.80798H103.976V7.48798H107.592V11.488H103.976V18.912C103.976 20.384 104.776 21.216 106.056 21.216C106.6 21.216 107.272 21.088 107.816 20.896V25.024C107.048 25.312 106.28 25.472 105.32 25.472Z" fill="#2B2B2B"/>
<path d="M89.9707 25.216V7.488H94.8987V25.216H89.9707ZM92.4667 5.696C90.8027 5.696 89.5227 4.48 89.5227 2.848C89.5227 1.184 90.8027 0 92.4667 0C94.1627 0 95.4107 1.184 95.4107 2.848C95.4107 4.48 94.1627 5.696 92.4667 5.696Z" fill="#2B2B2B"/>
<path d="M82.1731 25.2159V2.55994H87.1011V25.2159H82.1731Z" fill="#2B2B2B"/>
<path d="M74.3757 25.216V7.488H79.3037V25.216H74.3757ZM76.8717 5.696C75.2077 5.696 73.9277 4.48 73.9277 2.848C73.9277 1.184 75.2077 0 76.8717 0C78.5677 0 79.8157 1.184 79.8157 2.848C79.8157 4.48 78.5677 5.696 76.8717 5.696Z" fill="#2B2B2B"/>
<path d="M43.9844 25.2159V7.48793H48.9444V9.53593C49.7124 8.38393 51.6644 7.23193 54.0644 7.23193C56.5284 7.23193 58.5124 8.35193 59.4084 10.1119C61.0404 8.09593 63.3124 7.23193 65.4564 7.23193C69.1364 7.23193 71.6964 9.79193 71.6964 13.6319V25.2159H66.7364V14.9119C66.7364 12.8639 65.7444 11.5839 63.9524 11.5839C61.6484 11.5839 60.3044 13.6319 60.3044 17.3759V25.2159H55.3444V14.9119C55.3444 12.8639 54.3844 11.5839 52.5604 11.5839C50.3204 11.5839 48.9444 13.5999 48.9444 17.3759V25.2159H43.9844Z" fill="#2B2B2B"/>
<path d="M30.6814 25.4719C26.7774 25.4719 24.0574 22.9119 24.0574 19.0719V7.48792H29.0174V17.7919C29.0174 19.7759 30.2654 21.1199 32.1854 21.1199C34.6174 21.1199 36.1534 19.1039 36.1534 15.3279V7.48792H41.1134V25.2159H36.1534V23.1359C35.2894 24.3199 33.1774 25.4719 30.6814 25.4719Z" fill="#2B2B2B"/>
<path d="M16.2238 25.2159V15.8399H7.16783V25.2159H2.07983V2.81592H7.16783V11.5199H16.2238V2.81592H21.2798V25.2159H16.2238Z" fill="#2B2B2B"/>
<path d="M712.233 3.66519C712.816 3.08247 713.761 3.08247 714.344 3.66519L723.84 13.1613C724.422 13.744 724.422 14.688 723.84 15.2707L714.344 24.7668C713.761 25.3495 712.816 25.3495 712.233 24.7668C711.651 24.184 711.651 23.239 712.233 22.6564L719.183 15.7082H252.962L259.91 22.6564C260.493 23.2391 260.493 24.184 259.91 24.7668C259.327 25.3495 258.383 25.3495 257.8 24.7668L248.305 15.2707C247.722 14.6879 247.722 13.744 248.305 13.1613L257.8 3.66519C258.383 3.08247 259.327 3.08247 259.91 3.66519C260.493 4.24791 260.493 5.19282 259.91 5.77554L252.962 12.7238H719.183L712.233 5.77554C711.651 5.19293 711.651 4.24794 712.233 3.66519Z" fill="black"/>
<path d="M525.072 14.2159C525.072 19.1865 521.043 23.2159 516.072 23.2159C511.102 23.2159 507.072 19.1865 507.072 14.2159C507.072 9.24538 511.102 5.21594 516.072 5.21594C521.043 5.21594 525.072 9.24538 525.072 14.2159Z" fill="#E01616"/>
<path d="M896.088 25.2159V2.55994H901.048V9.56794C901.944 8.35194 904.056 7.23194 906.52 7.23194C910.424 7.23194 913.144 9.79194 913.144 13.6319V25.2159H908.184V14.9439C908.184 12.9279 907.064 11.5839 905.08 11.5839C902.648 11.5839 901.048 13.4719 901.048 17.2799V25.2159H896.088Z" fill="#2B2B2B"/>
<path d="M891.749 25.472C888.165 25.472 885.445 23.296 885.445 19.392V11.488H882.949V7.48798H885.445V3.80798H890.405V7.48798H894.021V11.488H890.405V18.912C890.405 20.384 891.205 21.216 892.485 21.216C893.029 21.216 893.701 21.088 894.245 20.896V25.024C893.477 25.312 892.709 25.472 891.749 25.472Z" fill="#2B2B2B"/>
<path d="M872.472 31.2959C867.672 31.2959 864.504 28.7999 864.056 25.5999H868.984C869.4 26.9119 870.616 27.6159 872.504 27.6159C874.936 27.6159 876.408 26.2719 876.408 23.7759V21.9839C875.352 23.3599 873.528 24.1599 871.32 24.1599C866.584 24.1599 863.256 20.8319 863.256 15.7119C863.256 10.6559 866.584 7.23193 871.32 7.23193C873.496 7.23193 875.352 8.06393 876.408 9.37593V7.48793H881.368V23.4879C881.368 28.4799 877.944 31.2959 872.472 31.2959ZM872.344 19.9359C874.712 19.9359 876.408 18.1759 876.408 15.6799C876.408 13.2159 874.712 11.4239 872.344 11.4239C869.944 11.4239 868.248 13.2159 868.248 15.6799C868.248 18.1759 869.944 19.9359 872.344 19.9359Z" fill="#2B2B2B"/>
<path d="M844.289 25.2159V7.48793H849.249V9.56793C850.113 8.38393 852.225 7.23193 854.721 7.23193C858.625 7.23193 861.345 9.79193 861.345 13.5999V25.2159H856.385V14.9119C856.385 12.9279 855.265 11.5839 853.281 11.5839C850.849 11.5839 849.249 13.4719 849.249 17.2799V25.2159H844.289Z" fill="#2B2B2B"/>
<path d="M833.656 25.4719C828.088 25.4719 824.472 21.6639 824.472 16.3519C824.472 11.0399 828.088 7.23193 833.432 7.23193C839.352 7.23193 842.936 11.7439 842.104 17.5039H829.336C829.72 19.9679 831.256 21.3759 833.656 21.3759C835.448 21.3759 836.696 20.5439 836.984 19.3599H842.072C841.528 22.9759 838.264 25.4719 833.656 25.4719ZM829.592 13.9519H836.952C836.856 12.1279 835.512 10.9759 833.432 10.9759C831.512 10.9759 830.168 12.0319 829.592 13.9519Z" fill="#2B2B2B"/>
<path d="M812.476 25.2159V7.48793H817.436V9.63193C818.3 8.19193 820.252 7.23193 822.236 7.23193C823.1 7.23193 823.804 7.32793 824.38 7.55193V12.2879C823.708 12.0319 822.876 11.8719 822.076 11.8719C819.644 11.8719 817.436 13.7599 817.436 18.7839V25.2159H812.476Z" fill="#2B2B2B"/>
<path d="M808.136 25.472C804.552 25.472 801.832 23.296 801.832 19.392V11.488H799.336V7.48798H801.832V3.80798H806.792V7.48798H810.408V11.488H806.792V18.912C806.792 20.384 807.592 21.216 808.872 21.216C809.416 21.216 810.088 21.088 810.632 20.896V25.024C809.864 25.312 809.096 25.472 808.136 25.472Z" fill="#2B2B2B"/>
<path d="M790.325 25.4719C784.821 25.4719 781.397 22.3359 780.981 17.3439H785.909C786.229 19.7119 787.733 21.1519 790.325 21.1519C792.085 21.1519 793.461 20.4159 793.461 18.7519C793.461 14.8479 781.941 17.2799 781.941 9.08794C781.941 5.18394 785.525 2.55994 789.845 2.55994C794.805 2.55994 797.877 5.08794 798.389 9.59994H793.461C793.141 7.93594 791.637 6.87994 789.749 6.87994C788.085 6.87994 786.997 7.64794 786.997 8.83194C786.997 12.3839 798.549 9.75994 798.549 18.4319C798.549 22.8799 794.965 25.4719 790.325 25.4719Z" fill="#2B2B2B"/>
<path d="M116.597 87.2159V69.4879H121.557V71.5679C122.421 70.3839 124.533 69.2319 127.029 69.2319C130.933 69.2319 133.653 71.7919 133.653 75.5999V87.2159H128.693V76.9119C128.693 74.9279 127.573 73.5839 125.589 73.5839C123.157 73.5839 121.557 75.4719 121.557 79.2799V87.2159H116.597Z" fill="#2B2B2B"/>
<path d="M105.218 87.4719C99.7776 87.4719 95.8416 83.6959 95.8416 78.3519C95.8416 73.0079 99.7776 69.2319 105.218 69.2319C110.658 69.2319 114.594 73.0079 114.594 78.3519C114.594 83.6959 110.658 87.4719 105.218 87.4719ZM105.218 83.2479C107.778 83.2479 109.57 81.2959 109.57 78.3519C109.57 75.4079 107.778 73.4239 105.218 73.4239C102.626 73.4239 100.866 75.4079 100.866 78.3519C100.866 81.2959 102.626 83.2479 105.218 83.2479Z" fill="#2B2B2B"/>
<path d="M88.9082 87.216V69.488H93.8362V87.216H88.9082ZM91.4042 67.696C89.7402 67.696 88.4602 66.48 88.4602 64.848C88.4602 63.184 89.7402 62 91.4042 62C93.1002 62 94.3482 63.184 94.3482 64.848C94.3482 66.48 93.1002 67.696 91.4042 67.696Z" fill="#2B2B2B"/>
<path d="M84.5688 87.472C80.9848 87.472 78.2648 85.296 78.2648 81.392V73.488H75.7688V69.488H78.2648V65.808H83.2248V69.488H86.8408V73.488H83.2248V80.912C83.2248 82.384 84.0248 83.216 85.3048 83.216C85.8488 83.216 86.5208 83.088 87.0648 82.896V87.024C86.2968 87.312 85.5288 87.472 84.5688 87.472Z" fill="#2B2B2B"/>
<path d="M66.6317 87.4719C61.3197 87.4719 57.5117 83.6639 57.5117 78.3519C57.5117 73.0079 61.3197 69.2319 66.6317 69.2319C71.3357 69.2319 74.7277 71.8239 75.1757 76.2079H70.1517C69.8637 74.5759 68.5197 73.4239 66.6317 73.4239C64.2637 73.4239 62.5357 75.3759 62.5357 78.3519C62.5357 81.2959 64.2957 83.2479 66.6317 83.2479C68.5837 83.2479 69.9917 82.0959 70.2797 80.5599H75.2717C74.9197 84.4959 71.5597 87.4719 66.6317 87.4719Z" fill="#2B2B2B"/>
<path d="M38.6406 87.2159V69.4879H43.6006V71.5679C44.4646 70.3839 46.5766 69.2319 49.0726 69.2319C52.9766 69.2319 55.6966 71.7919 55.6966 75.5999V87.2159H50.7366V76.9119C50.7366 74.9279 49.6166 73.5839 47.6326 73.5839C45.2006 73.5839 43.6006 75.4719 43.6006 79.2799V87.2159H38.6406Z" fill="#2B2B2B"/>
<path d="M25.3376 87.4719C21.4336 87.4719 18.7136 84.9119 18.7136 81.0719V69.4879H23.6736V79.7919C23.6736 81.7759 24.9216 83.1199 26.8416 83.1199C29.2736 83.1199 30.8096 81.1039 30.8096 77.3279V69.4879H35.7696V87.2159H30.8096V85.1359C29.9456 86.3199 27.8336 87.4719 25.3376 87.4719Z" fill="#2B2B2B"/>
<path d="M2.07983 87.2159V64.8159H17.6638V69.1359H7.16783V73.4559H15.6158V77.7759H7.16783V87.2159H2.07983Z" fill="#2B2B2B"/>
<path d="M712.233 65.6652C712.816 65.0825 713.761 65.0825 714.344 65.6652L723.84 75.1613C724.422 75.744 724.422 76.688 723.84 77.2707L714.344 86.7668C713.761 87.3495 712.816 87.3495 712.233 86.7668C711.651 86.184 711.651 85.239 712.233 84.6564L719.183 77.7082H252.962L259.91 84.6564C260.493 85.2391 260.493 86.184 259.91 86.7668C259.327 87.3495 258.383 87.3495 257.8 86.7668L248.305 77.2707C247.722 76.6879 247.722 75.744 248.305 75.1613L257.8 65.6652C258.383 65.0825 259.327 65.0825 259.91 65.6652C260.493 66.2479 260.493 67.1928 259.91 67.7755L252.962 74.7238H719.183L712.233 67.7755C711.651 67.1929 711.651 66.2479 712.233 65.6652Z" fill="black"/>
<path d="M515.072 76.2159C515.072 81.1865 511.043 85.2159 506.072 85.2159C501.102 85.2159 497.072 81.1865 497.072 76.2159C497.072 71.2454 501.102 67.2159 506.072 67.2159C511.043 67.2159 515.072 71.2454 515.072 76.2159Z" fill="#E01616"/>
<path d="M833.071 87.2159V69.4879H838.031V71.6319C838.895 70.1919 840.847 69.2319 842.831 69.2319C843.695 69.2319 844.399 69.3279 844.975 69.5519V74.2879C844.303 74.0319 843.471 73.8719 842.671 73.8719C840.239 73.8719 838.031 75.7599 838.031 80.7839V87.2159H833.071Z" fill="#2B2B2B"/>
<path d="M825.273 87.216V69.488H830.201V87.216H825.273ZM827.769 67.696C826.105 67.696 824.825 66.48 824.825 64.848C824.825 63.184 826.105 62 827.769 62C829.465 62 830.713 63.184 830.713 64.848C830.713 66.48 829.465 67.696 827.769 67.696Z" fill="#2B2B2B"/>
<path d="M812.668 87.4719C808.892 87.4719 806.46 85.3919 806.46 82.2879C806.46 78.9599 808.764 76.9759 814.044 76.3999L817.66 76.0159V75.8239C817.66 73.9999 816.38 72.9759 814.46 72.9759C812.764 72.9759 811.356 73.9679 811.196 75.7279H806.46C806.844 71.9199 810.204 69.2319 814.524 69.2319C819.228 69.2319 822.62 71.6959 822.62 76.3999V87.2159H817.66V85.2319C816.828 86.6399 814.876 87.4719 812.668 87.4719ZM817.66 79.5679L814.14 79.9519C812.252 80.1759 811.42 80.9759 811.42 82.0639C811.42 83.1839 812.316 83.8239 813.788 83.8239C816.028 83.8239 817.596 82.1599 817.66 79.5679Z" fill="#2B2B2B"/>
<path d="M799.334 87.2159V64.5599H804.262V87.2159H799.334Z" fill="#2B2B2B"/>
<path d="M782.165 87.2159V64.8159H797.749V69.1359H787.253V73.4559H795.701V77.7759H787.253V87.2159H782.165Z" fill="#2B2B2B"/>
<path d="M137.951 155.04L140.639 148.736L133.695 131.488H139.039L143.231 142.432L147.359 131.488H152.575L143.135 155.04H137.951Z" fill="#2B2B2B"/>
<path d="M125.509 149.472C120.197 149.472 116.389 145.664 116.389 140.352C116.389 135.008 120.197 131.232 125.509 131.232C130.213 131.232 133.605 133.824 134.053 138.208H129.029C128.741 136.576 127.397 135.424 125.509 135.424C123.141 135.424 121.413 137.376 121.413 140.352C121.413 143.296 123.173 145.248 125.509 145.248C127.461 145.248 128.869 144.096 129.157 142.56H134.149C133.797 146.496 130.437 149.472 125.509 149.472Z" fill="#2B2B2B"/>
<path d="M97.5181 149.216V131.488H102.478V133.568C103.342 132.384 105.454 131.232 107.95 131.232C111.854 131.232 114.574 133.792 114.574 137.6V149.216H109.614V138.912C109.614 136.928 108.494 135.584 106.51 135.584C104.078 135.584 102.478 137.472 102.478 141.28V149.216H97.5181Z" fill="#2B2B2B"/>
<path d="M86.8844 149.472C81.3164 149.472 77.7004 145.664 77.7004 140.352C77.7004 135.04 81.3164 131.232 86.6604 131.232C92.5804 131.232 96.1644 135.744 95.3324 141.504H82.5644C82.9484 143.968 84.4844 145.376 86.8844 145.376C88.6764 145.376 89.9244 144.544 90.2124 143.36H95.3004C94.7564 146.976 91.4924 149.472 86.8844 149.472ZM82.8204 137.952H90.1804C90.0844 136.128 88.7404 134.976 86.6604 134.976C84.7404 134.976 83.3964 136.032 82.8204 137.952Z" fill="#2B2B2B"/>
<path d="M70.7669 149.216V131.488H75.6949V149.216H70.7669ZM73.2628 129.696C71.5988 129.696 70.3188 128.48 70.3188 126.848C70.3188 125.184 71.5988 124 73.2628 124C74.9588 124 76.2068 125.184 76.2068 126.848C76.2068 128.48 74.9588 129.696 73.2628 129.696Z" fill="#2B2B2B"/>
<path d="M60.2567 149.472C54.9447 149.472 51.1367 145.664 51.1367 140.352C51.1367 135.008 54.9447 131.232 60.2567 131.232C64.9607 131.232 68.3527 133.824 68.8007 138.208H63.7767C63.4887 136.576 62.1447 135.424 60.2567 135.424C57.8887 135.424 56.1607 137.376 56.1607 140.352C56.1607 143.296 57.9207 145.248 60.2567 145.248C62.2087 145.248 63.6167 144.096 63.9047 142.56H68.8967C68.5447 146.496 65.1847 149.472 60.2567 149.472Z" fill="#2B2B2B"/>
<path d="M33.1485 149.216V135.488H30.3965V131.488H33.1485V130.56C33.1485 126.624 35.4525 124.288 39.0365 124.288C39.7725 124.288 40.8285 124.384 41.5005 124.64V128.8C40.9885 128.544 40.5405 128.48 40.0605 128.48C38.8765 128.48 38.1085 129.28 38.1085 130.752V131.488H49.1165V149.216H44.1565V135.488H38.1085V149.216H33.1485ZM46.6205 129.696C44.9565 129.696 43.7085 128.48 43.7085 126.848C43.7085 125.184 44.9565 124 46.6205 124C48.3165 124 49.5645 125.184 49.5645 126.848C49.5645 128.48 48.3165 129.696 46.6205 129.696Z" fill="#2B2B2B"/>
<path d="M21.3509 149.216V135.488H18.5989V131.488H21.3509V130.56C21.3509 126.624 23.9109 124.288 27.4309 124.288C28.5829 124.288 29.6389 124.448 30.0869 124.64V128.8C29.5749 128.608 29.0629 128.48 28.5189 128.48C27.2709 128.48 26.3109 129.248 26.3109 130.912V131.488H30.0229V135.488H26.3109V149.216H21.3509Z" fill="#2B2B2B"/>
<path d="M2.07983 149.216V126.816H17.6638V131.136H7.16783V135.456H15.6158V139.776H7.16783V144.896H17.8238V149.216H2.07983Z" fill="#2B2B2B"/>
<path d="M712.233 127.665C712.816 127.082 713.761 127.082 714.344 127.665L723.84 137.161C724.422 137.744 724.422 138.688 723.84 139.271L714.344 148.767C713.761 149.349 712.816 149.349 712.233 148.767C711.651 148.184 711.651 147.239 712.233 146.656L719.183 139.708H252.962L259.91 146.656C260.493 147.239 260.493 148.184 259.91 148.767C259.327 149.349 258.383 149.349 257.8 148.767L248.305 139.271C247.722 138.688 247.722 137.744 248.305 137.161L257.8 127.665C258.383 127.082 259.327 127.082 259.91 127.665C260.493 128.248 260.493 129.193 259.91 129.776L252.962 136.724H719.183L712.233 129.776C711.651 129.193 711.651 128.248 712.233 127.665Z" fill="black"/>
<path d="M495.072 137.278C495.072 142.249 491.043 146.278 486.072 146.278C481.101 146.278 477.072 142.249 477.072 137.278C477.072 132.308 481.101 128.278 486.072 128.278C491.043 128.278 495.072 132.308 495.072 137.278Z" fill="#E01616"/>
<path d="M886.837 149.216V126.56H891.797V133.568C892.693 132.352 894.805 131.232 897.269 131.232C901.173 131.232 903.893 133.792 903.893 137.632V149.216H898.933V138.944C898.933 136.928 897.813 135.584 895.829 135.584C893.397 135.584 891.797 137.472 891.797 141.28V149.216H886.837Z" fill="#2B2B2B"/>
<path d="M882.498 149.472C878.914 149.472 876.194 147.296 876.194 143.392V135.488H873.698V131.488H876.194V127.808H881.154V131.488H884.77V135.488H881.154V142.912C881.154 144.384 881.954 145.216 883.234 145.216C883.778 145.216 884.45 145.088 884.994 144.896V149.024C884.226 149.312 883.458 149.472 882.498 149.472Z" fill="#2B2B2B"/>
<path d="M844.711 149.216V131.488H849.671V133.536C850.439 132.384 852.391 131.232 854.791 131.232C857.255 131.232 859.239 132.352 860.135 134.112C861.767 132.096 864.039 131.232 866.183 131.232C869.863 131.232 872.423 133.792 872.423 137.632V149.216H867.463V138.912C867.463 136.864 866.471 135.584 864.679 135.584C862.375 135.584 861.031 137.632 861.031 141.376V149.216H856.071V138.912C856.071 136.864 855.111 135.584 853.287 135.584C851.047 135.584 849.671 137.6 849.671 141.376V149.216H844.711Z" fill="#2B2B2B"/>
<path d="M831.257 149.216V131.488H836.217V133.632C837.081 132.192 839.033 131.232 841.017 131.232C841.881 131.232 842.585 131.328 843.161 131.552V136.288C842.489 136.032 841.657 135.872 840.857 135.872C838.425 135.872 836.217 137.76 836.217 142.784V149.216H831.257Z" fill="#2B2B2B"/>
<path d="M818.652 149.472C814.876 149.472 812.444 147.392 812.444 144.288C812.444 140.96 814.748 138.976 820.028 138.4L823.644 138.016V137.824C823.644 136 822.364 134.976 820.444 134.976C818.748 134.976 817.34 135.968 817.18 137.728H812.444C812.828 133.92 816.188 131.232 820.508 131.232C825.212 131.232 828.604 133.696 828.604 138.4V149.216H823.644V147.232C822.812 148.64 820.86 149.472 818.652 149.472ZM823.644 141.568L820.124 141.952C818.236 142.176 817.404 142.976 817.404 144.064C817.404 145.184 818.3 145.824 819.772 145.824C822.012 145.824 823.58 144.16 823.644 141.568Z" fill="#2B2B2B"/>
<path d="M787.029 149.216L780.309 126.816H785.685L788.597 137.664C789.525 141.248 789.877 143.552 789.877 143.552C789.877 143.552 790.293 141.248 791.157 137.664L794.037 126.816H799.669L802.581 137.664C803.477 141.248 803.829 143.552 803.829 143.552C803.829 143.552 804.213 141.248 805.141 137.664L808.053 126.816H813.237L806.549 149.216H800.949L798.133 139.008C797.173 135.424 796.789 133.152 796.789 133.152C796.789 133.152 796.405 135.424 795.445 139.008L792.629 149.216H787.029Z" fill="#2B2B2B"/>
<path d="M176.923 217.04L179.611 210.736L172.667 193.488H178.011L182.203 204.432L186.331 193.488H191.547L182.107 217.04H176.923Z" fill="#2B2B2B"/>
<path d="M170.245 211.472C166.661 211.472 163.941 209.296 163.941 205.392V197.488H161.445V193.488H163.941V189.808H168.901V193.488H172.517V197.488H168.901V204.912C168.901 206.384 169.701 207.216 170.981 207.216C171.525 207.216 172.197 207.088 172.741 206.896V211.024C171.973 211.312 171.205 211.472 170.245 211.472Z" fill="#2B2B2B"/>
<path d="M154.896 211.216V193.488H159.824V211.216H154.896ZM157.392 191.696C155.728 191.696 154.448 190.48 154.448 188.848C154.448 187.184 155.728 186 157.392 186C159.088 186 160.336 187.184 160.336 188.848C160.336 190.48 159.088 191.696 157.392 191.696Z" fill="#2B2B2B"/>
<path d="M147.098 211.216V188.56H152.026V211.216H147.098Z" fill="#2B2B2B"/>
<path d="M139.301 211.216V193.488H144.229V211.216H139.301ZM141.797 191.696C140.133 191.696 138.853 190.48 138.853 188.848C138.853 187.184 140.133 186 141.797 186C143.493 186 144.741 187.184 144.741 188.848C144.741 190.48 143.493 191.696 141.797 191.696Z" fill="#2B2B2B"/>
<path d="M128.965 211.472C126.757 211.472 124.645 210.608 123.557 209.264V211.216H118.597V188.56H123.557V195.44C124.645 194.096 126.757 193.232 128.965 193.232C133.957 193.232 137.253 196.848 137.253 202.352C137.253 207.856 133.957 211.472 128.965 211.472ZM127.909 207.248C130.501 207.248 132.261 205.296 132.261 202.352C132.261 199.408 130.501 197.424 127.909 197.424C125.317 197.424 123.557 199.408 123.557 202.352C123.557 205.296 125.317 207.248 127.909 207.248Z" fill="#2B2B2B"/>
<path d="M110.799 211.216V193.488H115.727V211.216H110.799ZM113.295 191.696C111.631 191.696 110.351 190.48 110.351 188.848C110.351 187.184 111.631 186 113.295 186C114.991 186 116.239 187.184 116.239 188.848C116.239 190.48 114.991 191.696 113.295 191.696Z" fill="#2B2B2B"/>
<path d="M101.751 211.472C97.239 211.472 94.359 209.008 94.167 205.296H98.935C99.031 206.672 100.151 207.568 101.847 207.568C103.191 207.568 103.991 206.896 103.991 206C103.991 202.96 94.615 205.008 94.615 198.288C94.615 195.568 97.047 193.232 101.111 193.232C105.623 193.232 108.407 195.536 108.599 198.96H103.863C103.703 197.648 102.647 196.88 101.175 196.88C100.055 196.88 99.223 197.36 99.223 198.256C99.223 201.232 108.727 198.416 108.727 205.776C108.727 209.232 106.007 211.472 101.751 211.472Z" fill="#2B2B2B"/>
<path d="M86.0784 211.472C81.5664 211.472 78.6864 209.008 78.4944 205.296H83.2624C83.3584 206.672 84.4784 207.568 86.1744 207.568C87.5184 207.568 88.3184 206.896 88.3184 206C88.3184 202.96 78.9424 205.008 78.9424 198.288C78.9424 195.568 81.3744 193.232 85.4384 193.232C89.9504 193.232 92.7344 195.536 92.9264 198.96H88.1904C88.0304 197.648 86.9744 196.88 85.5024 196.88C84.3824 196.88 83.5504 197.36 83.5504 198.256C83.5504 201.232 93.0544 198.416 93.0544 205.776C93.0544 209.232 90.3344 211.472 86.0784 211.472Z" fill="#2B2B2B"/>
<path d="M68.8207 211.472C63.2527 211.472 59.6367 207.664 59.6367 202.352C59.6367 197.04 63.2527 193.232 68.5967 193.232C74.5167 193.232 78.1007 197.744 77.2687 203.504H64.5007C64.8847 205.968 66.4207 207.376 68.8207 207.376C70.6127 207.376 71.8607 206.544 72.1487 205.36H77.2367C76.6927 208.976 73.4287 211.472 68.8207 211.472ZM64.7567 199.952H72.1167C72.0207 198.128 70.6767 196.976 68.5967 196.976C66.6767 196.976 65.3327 198.032 64.7567 199.952Z" fill="#2B2B2B"/>
<path d="M49.9904 211.472C44.6784 211.472 40.8704 207.664 40.8704 202.352C40.8704 197.008 44.6784 193.232 49.9904 193.232C54.6944 193.232 58.0864 195.824 58.5344 200.208H53.5104C53.2224 198.576 51.8784 197.424 49.9904 197.424C47.6224 197.424 45.8944 199.376 45.8944 202.352C45.8944 205.296 47.6544 207.248 49.9904 207.248C51.9424 207.248 53.3504 206.096 53.6384 204.56H58.6304C58.2784 208.496 54.9184 211.472 49.9904 211.472Z" fill="#2B2B2B"/>
<path d="M31.2242 211.472C25.9122 211.472 22.1042 207.664 22.1042 202.352C22.1042 197.008 25.9122 193.232 31.2242 193.232C35.9282 193.232 39.3202 195.824 39.7682 200.208H34.7442C34.4562 198.576 33.1122 197.424 31.2242 197.424C28.8562 197.424 27.1282 199.376 27.1282 202.352C27.1282 205.296 28.8882 207.248 31.2242 207.248C33.1762 207.248 34.5842 206.096 34.8722 204.56H39.8642C39.5122 208.496 36.1522 211.472 31.2242 211.472Z" fill="#2B2B2B"/>
<path d="M0 211.216L8.512 188.816H14.144L22.624 211.216H17.184L15.488 206.704H6.976L5.28 211.216H0ZM8.544 202.384H13.952L11.232 195.056L8.544 202.384Z" fill="#2B2B2B"/>
<path d="M712.233 189.665C712.816 189.082 713.761 189.082 714.344 189.665L723.84 199.161C724.422 199.744 724.422 200.688 723.84 201.271L714.344 210.767C713.761 211.349 712.816 211.349 712.233 210.767C711.651 210.184 711.651 209.239 712.233 208.656L719.183 201.708H252.962L259.91 208.656C260.493 209.239 260.493 210.184 259.91 210.767C259.327 211.349 258.383 211.349 257.8 210.767L248.305 201.271C247.722 200.688 247.722 199.744 248.305 199.161L257.8 189.665C258.383 189.082 259.327 189.082 259.91 189.665C260.493 190.248 260.493 191.193 259.91 191.776L252.962 198.724H719.183L712.233 191.776C711.651 191.193 711.651 190.248 712.233 189.665Z" fill="black"/>
<path d="M545.072 200.216C545.072 205.187 541.043 209.216 536.072 209.216C531.102 209.216 527.072 205.187 527.072 200.216C527.072 195.245 531.102 191.216 536.072 191.216C541.043 191.216 545.072 195.245 545.072 200.216Z" fill="#E01616"/>
<path d="M934.941 211.472C929.373 211.472 925.757 207.664 925.757 202.352C925.757 197.04 929.373 193.232 934.717 193.232C940.637 193.232 944.221 197.744 943.389 203.504H930.621C931.005 205.968 932.541 207.376 934.941 207.376C936.733 207.376 937.981 206.544 938.269 205.36H943.357C942.813 208.976 939.549 211.472 934.941 211.472ZM930.877 199.952H938.237C938.141 198.128 936.797 196.976 934.717 196.976C932.797 196.976 931.453 198.032 930.877 199.952Z" fill="#2B2B2B"/>
<path d="M916.11 211.472C910.798 211.472 906.99 207.664 906.99 202.352C906.99 197.008 910.798 193.232 916.11 193.232C920.814 193.232 924.206 195.824 924.654 200.208H919.63C919.342 198.576 917.998 197.424 916.11 197.424C913.742 197.424 912.014 199.376 912.014 202.352C912.014 205.296 913.774 207.248 916.11 207.248C918.062 207.248 919.47 206.096 919.758 204.56H924.75C924.398 208.496 921.038 211.472 916.11 211.472Z" fill="#2B2B2B"/>
<path d="M888.119 211.216V193.488H893.079V195.568C893.943 194.384 896.055 193.232 898.551 193.232C902.455 193.232 905.175 195.792 905.175 199.6V211.216H900.215V200.912C900.215 198.928 899.095 197.584 897.111 197.584C894.679 197.584 893.079 199.472 893.079 203.28V211.216H888.119Z" fill="#2B2B2B"/>
<path d="M877.486 211.472C871.918 211.472 868.302 207.664 868.302 202.352C868.302 197.04 871.918 193.232 877.262 193.232C883.182 193.232 886.766 197.744 885.934 203.504H873.166C873.55 205.968 875.086 207.376 877.486 207.376C879.278 207.376 880.526 206.544 880.814 205.36H885.902C885.358 208.976 882.094 211.472 877.486 211.472ZM873.422 199.952H880.782C880.686 198.128 879.342 196.976 877.262 196.976C875.342 196.976 873.998 198.032 873.422 199.952Z" fill="#2B2B2B"/>
<path d="M861.368 211.216V188.56H866.296V211.216H861.368Z" fill="#2B2B2B"/>
<path d="M853.571 211.216V188.56H858.499V211.216H853.571Z" fill="#2B2B2B"/>
<path d="M842.937 211.472C837.369 211.472 833.753 207.664 833.753 202.352C833.753 197.04 837.369 193.232 842.713 193.232C848.633 193.232 852.217 197.744 851.385 203.504H838.617C839.001 205.968 840.537 207.376 842.937 207.376C844.729 207.376 845.977 206.544 846.265 205.36H851.353C850.809 208.976 847.545 211.472 842.937 211.472ZM838.873 199.952H846.233C846.137 198.128 844.793 196.976 842.713 196.976C840.793 196.976 839.449 198.032 838.873 199.952Z" fill="#2B2B2B"/>
<path d="M824.107 211.472C818.795 211.472 814.987 207.664 814.987 202.352C814.987 197.008 818.795 193.232 824.107 193.232C828.811 193.232 832.203 195.824 832.651 200.208H827.627C827.339 198.576 825.995 197.424 824.107 197.424C821.739 197.424 820.011 199.376 820.011 202.352C820.011 205.296 821.771 207.248 824.107 207.248C826.059 207.248 827.467 206.096 827.755 204.56H832.747C832.395 208.496 829.035 211.472 824.107 211.472Z" fill="#2B2B2B"/>
<path d="M810.167 211.216L806.935 206.416L803.735 211.216H798.039L804.087 202.16L798.263 193.488H804.087L806.999 197.84L809.911 193.488H815.607L809.847 202.096L815.959 211.216H810.167Z" fill="#2B2B2B"/>
<path d="M782.165 211.216V188.816H797.749V193.136H787.253V197.456H795.701V201.776H787.253V206.896H797.909V211.216H782.165Z" fill="#2B2B2B"/>
</svg>
