<svg width="447" height="419" viewBox="0 0 447 419" fill="none" xmlns="http://www.w3.org/2000/svg">
<circle cx="320.322" cy="292.798" r="125.286" stroke="#888888" stroke-width="0.816356"/>
<path d="M295.586 299.859L295.586 285.733L301.503 285.733C304.286 285.733 306.01 287.399 306.01 289.965C306.01 292.434 304.286 294.236 301.503 294.236L297.859 294.236L297.859 299.859L295.586 299.859ZM301.209 292.218C302.777 292.218 303.698 291.317 303.698 289.965C303.698 288.633 302.777 287.751 301.209 287.751L297.859 287.751L297.859 292.218L301.209 292.218ZM306.164 299.859L311.631 285.733L314.041 285.733L319.527 299.859L317.077 299.859L315.804 296.489L309.789 296.489L308.535 299.859L306.164 299.859ZM310.534 294.511L315.059 294.511L312.787 288.515L310.534 294.511ZM322.084 299.859L322.084 285.733L328.001 285.733C330.783 285.733 332.527 287.32 332.527 289.906C332.527 291.513 331.704 292.865 330.274 293.492C331.273 293.942 331.763 294.667 332.037 295.941L332.507 298.233C332.605 298.782 332.781 299.428 333.056 299.859L330.607 299.859C330.391 299.526 330.254 299.076 330.195 298.664L329.803 296.411C329.509 294.765 328.608 294.06 326.453 294.06L324.357 294.06L324.357 299.859L322.084 299.859ZM327.707 292.042C329.274 292.042 330.195 291.258 330.195 289.906C330.195 288.554 329.274 287.751 327.707 287.751L324.357 287.751L324.357 292.042L327.707 292.042ZM338.758 299.859L338.758 287.732L334.369 287.732L334.369 285.733L345.419 285.733L345.419 287.732L341.03 287.732L341.03 299.859L338.758 299.859ZM348.179 299.859L348.179 285.733L350.668 285.733L355.958 294.178C356.82 295.549 357.349 296.587 357.349 296.587C357.349 296.587 357.251 295.431 357.251 293.805L357.251 285.733L359.523 285.733L359.523 299.859L357.035 299.859L351.745 291.435C350.903 290.063 350.354 289.025 350.354 289.025C350.354 289.025 350.452 290.2 350.452 291.807L350.452 299.859L348.179 299.859ZM363.399 299.859L363.399 285.733L372.568 285.733L372.568 287.732L365.672 287.732L365.672 291.376L371.236 291.376L371.236 293.374L365.672 293.374L365.672 297.841L372.784 297.841L372.784 299.859L363.399 299.859ZM375.844 299.859L375.844 285.733L381.761 285.733C384.543 285.733 386.287 287.32 386.287 289.906C386.287 291.513 385.464 292.865 384.034 293.492C385.033 293.942 385.523 294.667 385.797 295.941L386.267 298.233C386.365 298.782 386.541 299.428 386.816 299.859L384.367 299.859C384.151 299.526 384.014 299.076 383.955 298.664L383.563 296.411C383.27 294.765 382.368 294.06 380.213 294.06L378.117 294.06L378.117 299.859L375.844 299.859ZM381.467 292.042C383.034 292.042 383.955 291.258 383.955 289.906C383.955 288.554 383.034 287.751 381.467 287.751L378.117 287.751L378.117 292.042L381.467 292.042Z" fill="#2B2B2B"/>
<circle cx="126.456" cy="292.798" r="125.286" stroke="#888888" stroke-width="0.816356"/>
<path d="M55.0182 300.016C51.374 300.016 48.1804 297.626 48.1804 292.786C48.1804 288.241 51.3348 285.576 55.077 285.576C58.3294 285.576 60.798 287.379 61.327 290.455L58.8584 290.455C58.4861 288.711 57.0362 287.575 55.0574 287.575C52.432 287.575 50.4923 289.534 50.4923 292.786C50.4923 295.862 52.2557 297.998 55.175 297.998C57.5261 297.998 59.0935 296.489 59.1914 294.393L54.6264 294.393L54.6264 292.493L61.327 292.493L61.327 299.859L59.2502 299.859L59.2502 297.783C58.6232 299.095 56.8991 300.016 55.0182 300.016ZM64.927 299.859L64.927 285.733L70.8439 285.733C73.6261 285.733 75.3698 287.32 75.3698 289.906C75.3698 291.513 74.5469 292.865 73.1167 293.492C74.1159 293.942 74.6057 294.667 74.88 295.941L75.3502 298.233C75.4482 298.782 75.6245 299.428 75.8988 299.859L73.4498 299.859C73.2342 299.526 73.0971 299.076 73.0383 298.664L72.6465 296.411C72.3526 294.765 71.4513 294.06 69.2961 294.06L67.1997 294.06L67.1997 299.859L64.927 299.859ZM70.5501 292.042C72.1175 292.042 73.0383 291.258 73.0383 289.906C73.0383 288.554 72.1175 287.751 70.5501 287.751L67.1997 287.751L67.1997 292.042L70.5501 292.042ZM85.0599 300.016C80.9846 300.016 78.0066 296.96 78.0066 292.786C78.0066 288.633 80.9846 285.576 85.0599 285.576C89.1155 285.576 92.0936 288.613 92.0936 292.786C92.0936 296.979 89.1155 300.016 85.0599 300.016ZM85.0599 297.998C87.8028 297.998 89.7817 295.804 89.7817 292.786C89.7817 289.789 87.8028 287.575 85.0599 287.575C82.2973 287.575 80.3185 289.789 80.3185 292.786C80.3185 295.804 82.2973 297.998 85.0599 297.998ZM100.658 300.016C97.4053 300.016 95.1718 298.174 95.1718 294.844L95.1718 285.733L97.4445 285.733L97.4445 294.902C97.4445 296.901 98.7572 297.998 100.658 297.998C102.578 297.998 103.91 296.901 103.91 294.902L103.91 285.733L106.183 285.733L106.183 294.844C106.183 298.174 103.93 300.016 100.658 300.016ZM109.954 299.859L109.954 285.733L112.442 285.733L117.732 294.178C118.594 295.549 119.123 296.587 119.123 296.587C119.123 296.587 119.025 295.431 119.025 293.805L119.025 285.733L121.298 285.733L121.298 299.859L118.81 299.859L113.52 291.435C112.677 290.063 112.129 289.025 112.129 289.025C112.129 289.025 112.227 290.2 112.227 291.807L112.227 299.859L109.954 299.859ZM125.173 299.859L125.173 285.733L129.582 285.733C133.5 285.733 136.753 288.143 136.753 292.786C136.753 297.449 133.5 299.859 129.582 299.859L125.173 299.859ZM129.444 297.841C131.992 297.841 134.421 296.431 134.421 292.786C134.421 289.162 131.992 287.751 129.444 287.751L127.446 287.751L127.446 297.841L129.444 297.841ZM139.953 299.859L139.953 285.733L149.122 285.733L149.122 287.732L142.225 287.732L142.225 291.376L147.79 291.376L147.79 293.374L142.225 293.374L142.225 297.841L149.338 297.841L149.338 299.859L139.953 299.859ZM152.398 299.859L152.398 285.733L156.806 285.733C160.725 285.733 163.977 288.143 163.977 292.786C163.977 297.449 160.725 299.859 156.806 299.859L152.398 299.859ZM156.669 297.841C159.216 297.841 161.645 296.431 161.645 292.786C161.645 289.162 159.216 287.751 156.669 287.751L154.671 287.751L154.671 297.841L156.669 297.841Z" fill="#2B2B2B"/>
<circle cx="223.548" cy="126.103" r="125.286" stroke="#2B2B2B" stroke-width="1.63271"/>
<path d="M170.931 133.164L170.931 119.038L180.1 119.038L180.1 121.036L173.204 121.036L173.204 124.68L178.768 124.68L178.768 126.679L173.204 126.679L173.204 131.146L180.316 131.146L180.316 133.164L170.931 133.164ZM183.376 133.164L183.376 119.038L192.663 119.038L192.663 121.036L185.649 121.036L185.649 124.837L191.35 124.837L191.35 126.836L185.649 126.836L185.649 133.164L183.376 133.164ZM195.458 133.164L195.458 119.038L204.745 119.038L204.745 121.036L197.73 121.036L197.73 124.837L203.432 124.837L203.432 126.836L197.73 126.836L197.73 133.164L195.458 133.164ZM207.539 133.164L207.539 119.038L216.709 119.038L216.709 121.036L209.812 121.036L209.812 124.68L215.376 124.68L215.376 126.679L209.812 126.679L209.812 131.146L216.924 131.146L216.924 133.164L207.539 133.164ZM225.814 133.321C222.15 133.321 218.878 130.931 218.878 126.091C218.878 121.271 222.209 118.881 225.814 118.881C229.027 118.881 231.574 120.664 231.986 123.838L229.595 123.838C229.301 122.035 227.773 120.88 225.794 120.88C223.169 120.88 221.19 122.741 221.19 126.091C221.19 129.461 223.169 131.303 225.794 131.303C227.793 131.303 229.262 130.225 229.595 128.364L232.005 128.364C231.476 131.636 228.929 133.321 225.814 133.321ZM237.73 133.164L237.73 121.036L233.341 121.036L233.341 119.038L244.391 119.038L244.391 121.036L240.002 121.036L240.002 133.164L237.73 133.164ZM247.151 133.164L247.151 119.038L249.424 119.038L249.424 133.164L247.151 133.164ZM257.357 133.164L252.028 119.038L254.497 119.038L258.572 130.245L262.647 119.038L264.998 119.038L259.669 133.164L257.357 133.164ZM267.603 133.164L267.603 119.038L276.772 119.038L276.772 121.036L269.875 121.036L269.875 124.68L275.44 124.68L275.44 126.679L269.875 126.679L269.875 131.146L276.988 131.146L276.988 133.164L267.603 133.164Z" fill="#2B2B2B"/>
</svg>
